<svg width="47" height="45" viewBox="0 0 47 45" fill="none" xmlns="http://www.w3.org/2000/svg">
<rect x="0.5" y="0.5" width="46" height="44" rx="22" fill="white"/>
<rect x="0.5" y="0.5" width="46" height="44" rx="22" stroke="#D1D1D1"/>
<path d="M31.889 22.2722C31.8644 22.2166 31.2688 20.8955 29.9448 19.5715C28.1807 17.8073 25.9525 16.875 23.5 16.875C21.0475 16.875 18.8193 17.8073 17.0551 19.5715C15.7312 20.8955 15.1328 22.2188 15.111 22.2722C15.079 22.3441 15.0625 22.422 15.0625 22.5007C15.0625 22.5794 15.079 22.6573 15.111 22.7292C15.1356 22.7848 15.7312 24.1052 17.0551 25.4292C18.8193 27.1927 21.0475 28.125 23.5 28.125C25.9525 28.125 28.1807 27.1927 29.9448 25.4292C31.2688 24.1052 31.8644 22.7848 31.889 22.7292C31.921 22.6573 31.9375 22.5794 31.9375 22.5007C31.9375 22.422 31.921 22.3441 31.889 22.2722ZM23.5 27C21.3358 27 19.4451 26.2132 17.8799 24.6621C17.2377 24.0234 16.6914 23.2952 16.2578 22.5C16.6912 21.7047 17.2376 20.9764 17.8799 20.3379C19.4451 18.7868 21.3358 18 23.5 18C25.6642 18 27.5549 18.7868 29.1201 20.3379C29.7635 20.9763 30.3111 21.7046 30.7457 22.5C30.2387 23.4464 28.0302 27 23.5 27ZM23.5 19.125C22.8325 19.125 22.18 19.3229 21.6249 19.6938C21.0699 20.0646 20.6373 20.5917 20.3819 21.2084C20.1265 21.8251 20.0596 22.5037 20.1898 23.1584C20.3201 23.8131 20.6415 24.4145 21.1135 24.8865C21.5855 25.3585 22.1869 25.6799 22.8416 25.8102C23.4963 25.9404 24.1748 25.8735 24.7915 25.6181C25.4083 25.3626 25.9354 24.9301 26.3062 24.375C26.6771 23.82 26.875 23.1675 26.875 22.5C26.8741 21.6052 26.5182 20.7473 25.8855 20.1145C25.2527 19.4818 24.3948 19.1259 23.5 19.125ZM23.5 24.75C23.055 24.75 22.62 24.618 22.25 24.3708C21.88 24.1236 21.5916 23.7722 21.4213 23.361C21.251 22.9499 21.2064 22.4975 21.2932 22.061C21.38 21.6246 21.5943 21.2237 21.909 20.909C22.2237 20.5943 22.6246 20.38 23.061 20.2932C23.4975 20.2064 23.9499 20.251 24.361 20.4213C24.7722 20.5916 25.1236 20.88 25.3708 21.25C25.618 21.62 25.75 22.055 25.75 22.5C25.75 23.0967 25.5129 23.669 25.091 24.091C24.669 24.5129 24.0967 24.75 23.5 24.75Z" fill="black"/>
</svg>
