<svg width="227" height="218" viewBox="0 0 227 218" fill="none" xmlns="http://www.w3.org/2000/svg">
<path opacity="0.1" fill-rule="evenodd" clip-rule="evenodd" d="M16.504 9.2282C12.4722 9.2282 9.20376 12.3654 9.20376 16.2353C9.20376 20.1052 12.4722 23.2424 16.504 23.2424C20.5359 23.2424 23.8044 20.1052 23.8044 16.2353C23.8044 12.3654 20.5359 9.2282 16.504 9.2282ZM0.395508 16.2353C0.395508 7.69609 7.60754 0.773697 16.504 0.773697C25.4005 0.773697 32.6126 7.69607 32.6126 16.2353C32.6126 24.7745 25.4005 31.6969 16.504 31.6969C7.60752 31.6969 0.395508 24.7745 0.395508 16.2353Z" fill="#31C2E3"/>
<path opacity="0.1" fill-rule="evenodd" clip-rule="evenodd" d="M204.396 183.908C197.104 183.908 191.192 189.582 191.192 196.582C191.192 203.581 197.104 209.256 204.396 209.256C211.689 209.256 217.601 203.581 217.601 196.582C217.601 189.582 211.689 183.908 204.396 183.908ZM182.384 196.582C182.384 184.913 192.239 175.453 204.396 175.453C216.554 175.453 226.409 184.913 226.409 196.582C226.409 208.251 216.554 217.71 204.396 217.71C192.239 217.71 182.384 208.251 182.384 196.582Z" fill="#31C2E3"/>
<path fill-rule="evenodd" clip-rule="evenodd" d="M110.45 11.9775C56.1153 11.9775 12.0681 54.2557 12.0681 106.408C12.0681 158.561 56.1153 200.839 110.45 200.839C164.785 200.839 208.832 158.561 208.832 106.408C208.832 54.2557 164.785 11.9775 110.45 11.9775ZM9.13208 106.408C9.13208 52.6992 54.4937 9.15933 110.45 9.15933C166.407 9.15933 211.768 52.6992 211.768 106.408C211.768 160.118 166.407 203.658 110.45 203.658C54.4937 203.658 9.13208 160.118 9.13208 106.408Z" fill="#31C2E3"/>
<path fill-rule="evenodd" clip-rule="evenodd" d="M74.3948 39.2982C64.968 56.4011 59.093 80.1257 59.093 106.408C59.093 132.691 64.968 156.416 74.3948 173.519C83.8564 190.685 96.6752 200.839 110.45 200.839C124.225 200.839 137.044 190.685 146.506 173.519C155.932 156.416 161.807 132.691 161.807 106.408C161.807 80.1257 155.932 56.4011 146.506 39.2982C137.044 22.1321 124.225 11.9775 110.45 11.9775C96.6752 11.9775 83.8564 22.1321 74.3948 39.2982ZM71.7995 37.9804C81.4569 20.4592 95.0507 9.15933 110.45 9.15933C125.85 9.15933 139.444 20.4592 149.101 37.9804C158.793 55.5648 164.744 79.7602 164.744 106.408C164.744 133.057 158.793 157.252 149.101 174.837C139.444 192.358 125.85 203.658 110.45 203.658C95.0507 203.658 81.4569 192.358 71.7995 174.837C62.1073 157.252 56.157 133.057 56.157 106.408C56.157 79.7602 62.1073 55.5648 71.7995 37.9804Z" fill="#31C2E3"/>
<path fill-rule="evenodd" clip-rule="evenodd" d="M108.982 202.249V10.5684H111.918V202.249H108.982Z" fill="#31C2E3"/>
<path fill-rule="evenodd" clip-rule="evenodd" d="M210.197 108.016H10.6001V105.198H210.197V108.016Z" fill="#31C2E3"/>
<path fill-rule="evenodd" clip-rule="evenodd" d="M26.0334 54.1962H195.592V57.0144H26.0334V54.1962Z" fill="#31C2E3"/>
<path fill-rule="evenodd" clip-rule="evenodd" d="M26.0334 155.703H194.867V158.521H26.0334V155.703Z" fill="#31C2E3"/>
<path opacity="0.4" fill-rule="evenodd" clip-rule="evenodd" d="M32.6763 82.4618H82.47V130.355H32.6763V82.4618ZM47.3568 96.5527V116.264H67.7896V96.5527H47.3568Z" fill="#31C2E3"/>
</svg>
