<svg width="124" height="117" viewBox="0 0 124 117" fill="none" xmlns="http://www.w3.org/2000/svg">
<g opacity="0.6" filter="url(#filter0_f_82_1126)">
<ellipse cx="61.6658" cy="58.4435" rx="24.0682" ry="20.8697" fill="url(#paint0_radial_82_1126)"/>
</g>
<ellipse cx="69.8937" cy="85.3541" rx="1.08512" ry="0.940922" fill="white"/>
<ellipse cx="85.2013" cy="82.3585" rx="1.08512" ry="0.940922" fill="white"/>
<ellipse opacity="0.4" cx="62.5138" cy="71.8046" rx="1.08512" ry="0.940922" fill="white"/>
<ellipse cx="69.4269" cy="55.7017" rx="1.08512" ry="0.940922" fill="white"/>
<ellipse cx="57.0883" cy="54.3034" rx="0.43405" ry="0.376369" fill="white"/>
<ellipse cx="48.4087" cy="45.2705" rx="0.43405" ry="0.376369" fill="white"/>
<ellipse opacity="0.7" cx="69.6782" cy="41.507" rx="0.43405" ry="0.376369" fill="white"/>
<ellipse cx="53.1831" cy="67.4767" rx="0.43405" ry="0.376369" fill="white"/>
<ellipse cx="56.2241" cy="79.5203" rx="0.43405" ry="0.376369" fill="white"/>
<ellipse cx="59.2612" cy="91.5639" rx="0.43405" ry="0.376369" fill="white"/>
<ellipse opacity="0.7" cx="77.9243" cy="75.0036" rx="0.43405" ry="0.376369" fill="white"/>
<ellipse cx="39.2954" cy="72.7458" rx="0.43405" ry="0.376369" fill="white"/>
<ellipse opacity="0.4" cx="40.1616" cy="40.7543" rx="0.43405" ry="0.376369" fill="white"/>
<ellipse opacity="0.4" cx="79.226" cy="48.6582" rx="0.43405" ry="0.376369" fill="white"/>
<ellipse cx="31.0454" cy="28.7104" rx="0.43405" ry="0.376369" fill="white"/>
<ellipse opacity="0.4" cx="26.7065" cy="70.4874" rx="0.43405" ry="0.376369" fill="white"/>
<ellipse opacity="0.7" cx="49.7114" cy="85.5424" rx="0.43405" ry="0.376369" fill="white"/>
<ellipse cx="96.5903" cy="58.4431" rx="0.43405" ry="0.376369" fill="white"/>
<ellipse opacity="0.7" cx="48.1925" cy="62.7721" rx="1.08512" ry="0.940922" fill="white"/>
<ellipse cx="78.5754" cy="34.5443" rx="1.08512" ry="0.940922" fill="white"/>
<ellipse opacity="0.4" cx="48.1925" cy="25.8878" rx="1.08512" ry="0.940922" fill="white"/>
<ellipse cx="87.256" cy="56.7495" rx="1.08512" ry="0.940922" fill="white"/>
<ellipse cx="31.6965" cy="57.8792" rx="1.08512" ry="0.940922" fill="white"/>
<defs>
<filter id="filter0_f_82_1126" x="0.174171" y="0.150246" width="122.984" height="116.586" filterUnits="userSpaceOnUse" color-interpolation-filters="sRGB">
<feFlood flood-opacity="0" result="BackgroundImageFix"/>
<feBlend mode="normal" in="SourceGraphic" in2="BackgroundImageFix" result="shape"/>
<feGaussianBlur stdDeviation="18.7117" result="effect1_foregroundBlur_82_1126"/>
</filter>
<radialGradient id="paint0_radial_82_1126" cx="0" cy="0" r="1" gradientUnits="userSpaceOnUse" gradientTransform="translate(61.6658 58.4435) rotate(90) scale(20.8697 24.0682)">
<stop offset="0.685" stop-color="#3FD1FF"/>
<stop offset="1" stop-color="#266799"/>
</radialGradient>
</defs>
</svg>
