<svg
    width="16"
    height="16"
    viewBox="0 0 16 16"
    fill="none"
    xmlns="http://www.w3.org/2000/svg"
>
    <path
        d="M10.5 6.99985C10.5 7.69208 10.2947 8.36877 9.91016 8.94434C9.52558 9.51992 8.97895 9.96852 8.33941 10.2334C7.69987 10.4983 6.99614 10.5676 6.3172 10.4326C5.63827 10.2975 5.01463 9.96421 4.52515 9.47472C4.03566 8.98524 3.70232 8.3616 3.56727 7.68266C3.43222 7.00373 3.50153 6.3 3.76644 5.66046C4.03135 5.02091 4.47995 4.47429 5.05552 4.0897C5.6311 3.70512 6.30779 3.49985 7.00002 3.49985C7.92828 3.49985 8.81852 3.8686 9.47489 4.52497C10.1313 5.18135 10.5 6.07159 10.5 6.99985ZM14.3538 14.3536C14.3073 14.4001 14.2522 14.437 14.1915 14.4621C14.1308 14.4873 14.0657 14.5002 14 14.5002C13.9343 14.5002 13.8692 14.4873 13.8085 14.4621C13.7478 14.437 13.6927 14.4001 13.6463 14.3536L10.5175 11.2242C9.42946 12.1294 8.03433 12.5803 6.62231 12.4831C5.21029 12.3859 3.89009 11.7481 2.93632 10.7024C1.98256 9.65664 1.46864 8.28347 1.50148 6.86849C1.53432 5.45351 2.11138 4.10566 3.11263 3.10529C4.11389 2.10492 5.46225 1.52905 6.87725 1.49747C8.29226 1.46588 9.66498 1.981 10.7099 2.9357C11.7548 3.89039 12.3914 5.21115 12.4873 6.62325C12.5833 8.03535 12.1312 9.43009 11.225 10.5173L14.3538 13.6461C14.4003 13.6925 14.4371 13.7477 14.4623 13.8084C14.4875 13.8691 14.5004 13.9341 14.5004 13.9998C14.5004 14.0656 14.4875 14.1306 14.4623 14.1913C14.4371 14.252 14.4003 14.3072 14.3538 14.3536ZM7.00002 11.4998C7.89004 11.4998 8.76006 11.2359 9.50008 10.7415C10.2401 10.247 10.8169 9.54419 11.1575 8.72192C11.4981 7.89966 11.5872 6.99486 11.4136 6.12194C11.2399 5.24903 10.8113 4.4472 10.182 3.81787C9.55266 3.18853 8.75084 2.75995 7.87793 2.58631C7.00501 2.41268 6.10021 2.5018 5.27794 2.84239C4.45568 3.18299 3.75287 3.75976 3.25841 4.49978C2.76394 5.2398 2.50002 6.10983 2.50002 6.99985C2.50134 8.19292 2.97587 9.33674 3.8195 10.1804C4.66313 11.024 5.80695 11.4985 7.00002 11.4998Z"
        fill="#BCBCBC"
    />
</svg>